<svg id="Layer_1" data-name="Layer 1" xmlns="http://www.w3.org/2000/svg" viewBox="0 0 23.31 24.32"><defs><style>.cls-1{fill:#fff;}</style></defs><title>boac-icon-group-filled</title><path class="cls-1" d="M22.73,31.25h-4.1a.5.5,0,0,1-.5-.46l-.62-7.51a1.63,1.63,0,0,1-1-.5,2.82,2.82,0,0,1-.31-2.25V20.4c.07-.61.28-2.65.41-3.83l.09-.82a3.6,3.6,0,0,1,1.14-2.33,3,3,0,0,1,1.36-.51h3a3,3,0,0,1,1.42.51,3.51,3.51,0,0,1,1.14,2.33l.09.82c.12,1.18.34,3.22.41,3.83v.13a2.82,2.82,0,0,1-.31,2.25,1.63,1.63,0,0,1-1,.5l-.62,7.51A.5.5,0,0,1,22.73,31.25Z" transform="translate(-9.06 -6.92)"/><path class="cls-1" d="M20.68,12a2.53,2.53,0,1,1,2.58-2.53A2.56,2.56,0,0,1,20.68,12Z" transform="translate(-9.06 -6.92)"/><path class="cls-1" d="M26.15,23.65a2,2,0,0,1-.38.25l.4,4.94a.5.5,0,0,0,.5.46h3.47a.5.5,0,0,0,.5-.46l.52-6.29a1.42,1.42,0,0,0,.86-.44,2.44,2.44,0,0,0,.28-2V20c-.06-.58-.29-2.69-.38-3.58l0-.35a3.11,3.11,0,0,0-1-2,2.61,2.61,0,0,0-1.25-.45H27.13a2.59,2.59,0,0,0-1.18.44c-.23.16-.18.43-.12.7.13.6.69,5.51.79,6.19S26.69,23.22,26.15,23.65Z" transform="translate(-9.06 -6.92)"/><path class="cls-1" d="M28.41,13a2.22,2.22,0,1,1,2.26-2.21A2.24,2.24,0,0,1,28.41,13Z" transform="translate(-9.06 -6.92)"/><path class="cls-1" d="M15.27,23.65a2,2,0,0,0,.38.25l-.4,4.94a.5.5,0,0,1-.5.46H11.28a.5.5,0,0,1-.5-.46l-.52-6.29a1.42,1.42,0,0,1-.86-.44,2.44,2.44,0,0,1-.28-2V20c.06-.58.29-2.69.38-3.58l0-.35a3.11,3.11,0,0,1,1-2,2.61,2.61,0,0,1,1.25-.45H14.3a2.59,2.59,0,0,1,1.18.44c.23.16.18.43.12.7-.13.6-.69,5.51-.79,6.19S14.73,23.22,15.27,23.65Z" transform="translate(-9.06 -6.92)"/><path class="cls-1" d="M10.76,10.8A2.26,2.26,0,1,1,13,13,2.24,2.24,0,0,1,10.76,10.8Z" transform="translate(-9.06 -6.92)"/></svg>
