<svg id="Layer_1" data-name="Layer 1" xmlns="http://www.w3.org/2000/svg" viewBox="0 0 25.46 24.85"><defs><style>.cls-1{fill:#fff;}</style></defs><title>boac-icon-student-filled</title><path class="cls-1" d="M20.72,6.66A12.6,12.6,0,0,0,8,19.08,12.6,12.6,0,0,0,20.72,31.51,12.6,12.6,0,0,0,33.45,19.08,12.6,12.6,0,0,0,20.72,6.66ZM18.57,28.82l-.49-6a1.37,1.37,0,0,1-.82-.42A2.33,2.33,0,0,1,17,20.55v-.1c.05-.48.22-2,.32-3l.08-.75a3,3,0,0,1,1-1.94,2.5,2.5,0,0,1,1.14-.42h2.39a2.53,2.53,0,0,1,1.2.43,3,3,0,0,1,1,1.94l.08.75c.1,1,.26,2.51.32,3v.11a2.33,2.33,0,0,1-.27,1.88,1.37,1.37,0,0,1-.82.42l-.49,6a.5.5,0,0,1-.5.46h-3.3A.5.5,0,0,1,18.57,28.82ZM20.72,9.53a2.13,2.13,0,1,1-2.17,2.13A2.15,2.15,0,0,1,20.72,9.53Z" transform="translate(-7.99 -6.66)"/></svg>
