<svg id="Layer_1" data-name="Layer 1" xmlns="http://www.w3.org/2000/svg" viewBox="0 0 21.52 24.91"><defs><style>.cls-1{fill:#fff;}</style></defs><title>boac-icon-cohort-filled</title><path class="cls-1" d="M16.09,31.54H12a.5.5,0,0,1-.5-.46l-.62-7.71a1.63,1.63,0,0,1-1-.5,2.91,2.91,0,0,1-.32-2.3v-.13c.07-.64.29-2.79.41-4l.08-.78a3.71,3.71,0,0,1,1.14-2.38,2.92,2.92,0,0,1,1.36-.52h3a3,3,0,0,1,1.42.53A3.71,3.71,0,0,1,18,15.67l.07.71c.12,1.19.35,3.4.42,4v.14a2.9,2.9,0,0,1-.32,2.3,1.63,1.63,0,0,1-1,.5l-.62,7.71A.5.5,0,0,1,16.09,31.54Z" transform="translate(-9.45 -6.63)"/><path class="cls-1" d="M14,11.79a2.58,2.58,0,1,1,2.58-2.58A2.58,2.58,0,0,1,14,11.79Z" transform="translate(-9.45 -6.63)"/><path class="cls-1" d="M28.43,31.54h-4.1a.5.5,0,0,1-.5-.46l-.62-7.71a1.63,1.63,0,0,1-1-.5,2.91,2.91,0,0,1-.32-2.3v-.13c.07-.64.29-2.79.41-4l.08-.78a3.71,3.71,0,0,1,1.14-2.38,2.92,2.92,0,0,1,1.36-.52h3a3,3,0,0,1,1.42.53,3.71,3.71,0,0,1,1.13,2.38l.08.8c.12,1.2.34,3.33.41,4v.13a2.91,2.91,0,0,1-.32,2.3,1.63,1.63,0,0,1-1,.5l-.62,7.71A.5.5,0,0,1,28.43,31.54Z" transform="translate(-9.45 -6.63)"/><path class="cls-1" d="M26.38,11.79A2.58,2.58,0,1,1,29,9.21,2.58,2.58,0,0,1,26.38,11.79Z" transform="translate(-9.45 -6.63)"/></svg>
