<svg width="40px" height="40px" viewBox="0 0 40 40" version="1.1" xmlns="http://www.w3.org/2000/svg" xmlns:xlink="http://www.w3.org/1999/xlink">
 <!-- Generator: Sketch 47.1 (45422) - http://www.bohemiancoding.com/sketch -->
 <desc>Created with Sketch.</desc>
 <defs></defs>
 <g id="Page-1" stroke="none" stroke-width="1" fill="none" fill-rule="evenodd">
 <g id="Container-Components" transform="translate(-700.000000, -123.000000)" fill="#0275D8">
 <path d="M739.27299,123.727057 C740.110154,124.716496 740.224311,126.124524 739.615465,127.951181 C739.006618,129.777839 737.979206,131.414195 736.533195,132.860299 L731.938331,137.455462 L736.504656,157.320265 C736.599788,157.681791 736.485631,157.995743 736.162181,158.26213 L732.509121,161.002103 C732.375936,161.116269 732.195188,161.173351 731.96687,161.173351 C731.890764,161.173351 731.824173,161.163838 731.767094,161.14481 C731.481697,161.087727 731.281922,160.935508 731.167763,160.688148 L723.205234,146.189125 L715.813495,153.581344 L717.32609,159.118372 C717.421223,159.441843 717.345118,159.736767 717.097774,160.003155 L714.357979,162.743128 C714.186741,162.914377 713.96794,163 713.70157,163 C713.359094,162.961945 713.13078,162.838267 712.959542,162.628962 L707.56557,155.436533 L700.373608,150.042212 C700.164318,149.909018 700.040647,149.690203 700.002595,149.38576 C699.983568,149.1384 700.069186,148.900558 700.25945,148.672226 L702.999245,145.903711 C703.170483,145.732462 703.389284,145.646839 703.655655,145.646839 C703.769813,145.646839 703.845918,145.656353 703.883971,145.67538 L709.42064,147.188074 L716.812379,139.795855 L702.314297,131.83281 C702.047926,131.680588 701.886204,131.452259 701.829125,131.147816 C701.791072,130.843373 701.876689,130.586504 702.08598,130.377199 L705.73904,126.723902 C706.005411,126.476542 706.290803,126.400433 706.595226,126.495571 L725.574015,131.033651 L730.14034,126.46703 C731.58635,125.020926 733.222601,123.993446 735.04914,123.38456 C736.875679,122.775674 738.283615,122.889839 739.27299,123.727057 Z" id="Airplane-Icon"></path>
 </g>
 </g>
</svg>
