<?xml version="1.0" encoding="utf-8"?>
<!-- Generator: Adobe Illustrator 21.0.2, SVG Export Plug-In . SVG Version: 6.00 Build 0)  -->
<svg version="1.1" id="Layer_1" xmlns="http://www.w3.org/2000/svg" xmlns:xlink="http://www.w3.org/1999/xlink" x="0px" y="0px"
	 viewBox="0 0 45 45" style="enable-background:new 0 0 45 45;" xml:space="preserve">
<style type="text/css">
	.st0{fill-rule:evenodd;clip-rule:evenodd;fill:#999999;}
	.st1{fill-rule:evenodd;clip-rule:evenodd;fill:#FFFFFF;}
	.st2{fill-rule:evenodd;clip-rule:evenodd;fill:#CCCCCC;}
</style>
<path class="st0" d="M22.5,0.2c4,0,7.7,1,11.2,3c3.4,2,6.1,4.7,8.1,8.1c2,3.4,3,7.1,3,11.2s-1,7.7-3,11.2c-2,3.4-4.7,6.1-8.1,8.1
	c-3.4,2-7.1,3-11.2,3s-7.7-1-11.2-3c-3.4-2-6.1-4.7-8.1-8.1s-3-7.1-3-11.2s1-7.7,3-11.2c2-3.4,4.7-6.1,8.1-8.1
	C14.8,1.2,18.5,0.2,22.5,0.2z"/>
<path class="st1" d="M22.5,40.5c2.2,0,4.3-0.4,6.3-1.1c2-0.7,3.8-1.8,5.4-3.2c-0.7-1.1-1.5-1.9-2.7-2.6c-1.1-0.6-2.3-1-3.6-1
	c-1.9,0.6-3.7,0.9-5.4,0.9c-1.8,0-3.6-0.3-5.4-0.9c-1.3,0.1-2.5,0.4-3.6,1s-2,1.5-2.7,2.6c1.6,1.4,3.4,2.4,5.4,3.2
	C18.2,40.1,20.3,40.5,22.5,40.5z"/>
<path class="st2" d="M37.2,32.9c2.2-3.1,3.3-6.6,3.3-10.4c0-3.2-0.8-6.2-2.4-9s-3.8-4.9-6.6-6.6s-5.8-2.4-9-2.4
	c-3.2,0-6.2,0.8-9,2.4c-2.8,1.6-4.9,3.8-6.6,6.6s-2.4,5.8-2.4,9c0,3.8,1.1,7.3,3.3,10.4c1.1-1.4,2.5-2.6,4.2-3.4
	c1.6-0.8,3.4-1.3,5.3-1.3c0.2,0,0.7,0.1,1.3,0.3c1.4,0.4,2.8,0.6,4,0.6c1.2,0,2.5-0.2,4-0.6c0.6-0.2,1-0.3,1.3-0.3
	c1.9,0,3.6,0.4,5.3,1.3C34.6,30.4,36,31.5,37.2,32.9z"/>
<path class="st0" d="M22.5,8.8c2.4,0,4.4,0.8,6.1,2.5c1.7,1.7,2.5,3.7,2.5,6.1s-0.8,4.4-2.5,6.1c-1.7,1.7-3.7,2.5-6.1,2.5
	s-4.4-0.8-6.1-2.5c-1.7-1.7-2.5-3.7-2.5-6.1s0.8-4.4,2.5-6.1C18.1,9.7,20.1,8.8,22.5,8.8z"/>
<path class="st1" d="M22.5,21.8c1.2,0,2.2-0.4,3.1-1.3c0.8-0.8,1.3-1.9,1.3-3.1c0-1.2-0.4-2.2-1.3-3.1c-0.8-0.8-1.9-1.3-3.1-1.3
	c-1.2,0-2.2,0.4-3.1,1.3c-0.8,0.8-1.3,1.9-1.3,3.1c0,1.2,0.4,2.2,1.3,3.1C20.3,21.4,21.3,21.8,22.5,21.8z"/>
</svg>
