<?xml version="1.0" encoding="utf-8"?>
<!-- Generator: Adobe Illustrator 21.0.2, SVG Export Plug-In . SVG Version: 6.00 Build 0)  -->
<svg version="1.1" id="Layer_1" xmlns="http://www.w3.org/2000/svg" xmlns:xlink="http://www.w3.org/1999/xlink" x="0px" y="0px"
	 viewBox="0 0 68 69.3" style="enable-background:new 0 0 68 69.3;" xml:space="preserve">
<style type="text/css">
	.st0{fill:#B1D3E0;}
	.st1{fill:#FFFFFF;stroke:#3679A3;stroke-width:2;stroke-miterlimit:10;}
	.st2{fill:#FFFFFF;}
	.st3{fill:none;stroke:#3679A3;stroke-width:2;stroke-miterlimit:10;}
	.st4{fill:none;stroke:#3679A3;stroke-width:3;stroke-miterlimit:10;}
</style>
<g>
	<circle class="st0" cx="34" cy="34.6" r="30.1"/>
	<circle class="st1" cx="54.4" cy="32.1" r="7.2"/>
	<circle class="st1" cx="13.6" cy="32.1" r="7.2"/>
	<circle class="st1" cx="34" cy="28.7" r="10.4"/>
	<path class="st2" d="M5.6,44.7c2.2-1.7,5-2.8,8-2.8c3.6,0,6.8,1.4,9.1,3.8l0,0c3.1-2.4,7-3.8,11.3-3.8c4.2,0,8.1,1.4,11.2,3.8l0,0
		c2.3-2.3,5.6-3.7,9.2-3.7c3,0,5.8,1,8,2.8l0,0C58.3,56.4,47.1,64.8,34,64.8C20.9,64.8,9.7,56.4,5.6,44.7L5.6,44.7z"/>
	<g>
		<path class="st3" d="M45.3,45.7c2.3-2.3,5.6-3.8,9.1-3.8c3,0,5.8,1,8,2.8"/>
		<path class="st3" d="M5.6,44.7c2.2-1.7,5-2.8,8-2.8c3.6,0,6.8,1.4,9.1,3.8"/>
		<path class="st3" d="M15.5,58.4c1.1-9.3,8.9-16.5,18.5-16.5c9.6,0,17.5,7.2,18.5,16.5"/>
	</g>
	<circle class="st4" cx="34" cy="34.6" r="30.1"/>
</g>
</svg>
